<svg xmlns="http://www.w3.org/2000/svg" viewBox="0 0 120 120" width="100%" height="100%">
  <defs>
    <linearGradient id="dockerGrad" x1="0%" y1="0%" x2="100%" y2="100%">
      <stop offset="0%" stop-color="#38BDF8"/>
      <stop offset="100%" stop-color="#1D4ED8"/>
    </linearGradient>
  </defs>
  <rect width="120" height="120" rx="24" fill="#0A0F24" stroke="rgba(56, 189, 248, 0.3)" stroke-width="1.5"/>
  <g fill="url(#dockerGrad)">
    <rect x="36" y="54" width="10" height="9" rx="1.5"/>
    <rect x="48" y="54" width="10" height="9" rx="1.5"/>
    <rect x="60" y="54" width="10" height="9" rx="1.5"/>
    <rect x="48" y="43" width="10" height="9" rx="1.5"/>
    <rect x="60" y="43" width="10" height="9" rx="1.5"/>
    <rect x="72" y="43" width="10" height="9" rx="1.5"/>
    <rect x="60" y="32" width="10" height="9" rx="1.5"/>
    <path d="M26 66 C26 78 40 84 60 84 C84 84 94 72 96 66 C90 65 82 68 76 66 C68 64 64 66 56 66 C46 66 36 64 26 66 Z"/>
  </g>
</svg>
